<svg xmlns="http://www.w3.org/2000/svg" width="71.623" height="67.175" viewBox="0 0 18.95 17.773">
  <path
    d="M9.433 20.895c-.19-.1-.362-.21-.526-.297a.381.381 0 0 1-.08-.063c-.003.024-.047.013-.11-.035a6.188 6.188 0 0 1-1.697-1.73l-.17-.278-.15-.299a4.795 4.795 0 0 1-.254-.616 6.07 6.07 0 0 1-.278-1.294.164.164 0 0 1-.05-.071c-.056-.12-.087-.368-.064-.625l.024-.193v-.032l.019.307a3.87 3.87 0 0 1 .045-1.357c.09-.429.254-.81.439-1.162.053-.156.13-.333.235-.505A6.283 6.283 0 0 1 8.02 11.01c-.042.018-.071.024-.082.01-.018-.042.082-.172.233-.288a3.72 3.72 0 0 1 .228-.177 8.1 8.1 0 0 0-.66.497c-.028.027-.057.048-.084.069a6.669 6.669 0 0 0-.624.677c-.397.506-.741 1.072-.96 1.73-.218.657-.302 1.427-.133 2.173l-.018-.35c-.024.686.06 1.369.259 2.02.19.648.529 1.272.918 1.78.026.03.06.082.071.117.006.026-.01.029-.04-.005A6.09 6.09 0 0 1 6.005 17.5a5.875 5.875 0 0 1-.439-2.18l.024.447a4.015 4.015 0 0 1-.12-.801 4.91 4.91 0 0 1 .342-1.99c.228-.59.53-1.103.876-1.572a7.794 7.794 0 0 1 1.185-1.27 9.57 9.57 0 0 1 .352-.28c.124-.087.251-.185.376-.262l.375-.233.387-.209c1.114-.495 2.235-.799 3.463-.862a7.65 7.65 0 0 1 1.91.14 6.177 6.177 0 0 1 1.993.772c.22.127.405.27.603.41.19.149.376.315.558.48.35.351.675.735.937 1.158a6.64 6.64 0 0 1 .952 2.694c.112.907.053 1.78-.108 2.603a9.586 9.586 0 0 1-.794 2.342 5.013 5.013 0 0 1-.929 1.376c-.164.164-.32.288-.45.373-.134.08-.243.119-.317.106-.177-.035-.092-.326.109-.762-.059.074-.117.148-.172.22-.095.11-.207.213-.31.322-.301.299-.611.503-.839.59a3.512 3.512 0 0 1-.307.122c-.436.119-1.092.322-1.473.27l.029-.101-.077.01a1.57 1.57 0 0 1-.315.04.402.402 0 0 1-.193-.05l-.013-.098c.008-.116.077-.251.19-.418-.023-.034-.02-.08.003-.13-.174-.026-.27-.095-.22-.243-.084.008-.09-.034-.012-.098a.54.54 0 0 1 .095-.06c-.05-.006-.066-.006-.13-.006-.074.024-.116.04-.116.04-.193.06-.196.055-.363.1-.153.005-.248-.018-.248-.018-.188-.13-.183-.14-.175-.212l.024-.024-.156-.01c-.035-.008-.056-.019-.056-.019-.007-.026-.017-.043-.029-.05-.008-.013-.008-.029-.008-.029.053-.056.053-.053.053-.066l.03-.027c.065-.023.09-.031.1-.037.082.043.127.048.148.059l.021.008.024-.043.047.037-.031-.037.082.005-.096-.013c.183-.026.183-.042.252-.066a.577.577 0 0 0 .143-.06c-.011-.012-.016-.02-.016-.02.193-.076.196-.063.383-.156h.059c.01-.02.042-.045.082-.063l.097-.058.016-.019.066-.069c.014-.013.014-.015.014-.015.047-.045.11-.125.27-.323.052-.043.103-.08.153-.114l-.056.024c-.034.013-.037-.037-.053-.027-.402.254-.828.5-1.238.6-.069.03-.143.035-.161.009-.019-.027.021-.072.09-.1.344-.228.73-.53 1.119-.892.389-.363.767-.791 1.1-1.21.152-.235.297-.478.413-.738l-.031.03.108-.194.01-.02-.124.129-.06.098c-.28.584-.683 1.047-1.117 1.447-.23.22-.47.352-.706.484-.056.04-.109.05-.12.021-.01-.026.027-.08.08-.119.325-.293.659-.682.963-1.082.307-.4.569-.815.815-1.156.063-.175.127-.336.204-.468v-.008l-.082.095c.053-.127.11-.188.153-.304l-.087.029c.092-.318.137-.657.137-.966.005-.312-.02-.598-.04-.863-.004-.02-.007-.04-.012-.058-.117-.196-.262-.352-.397-.542.047.063.066.145.103.214-.061-.063-.106-.135-.17-.193a1.43 1.43 0 0 1-.082-.098c-.029-.032-.063-.06-.09-.095a1.207 1.207 0 0 0-.124-.14c-.047-.045-.082-.098-.135-.143a2.464 2.464 0 0 1-.145-.143c-.048-.045-.09-.08-.133-.125-.174-.158-.357-.32-.49-.455-.56-.148-1.232-.13-1.886.008a5.58 5.58 0 0 0-.96.313 4.304 4.304 0 0 0-.839.473c-.05.04-.106.061-.13.048-.018-.016 0-.058.054-.098.336-.278.788-.53 1.254-.704a5.11 5.11 0 0 1 1.457-.31 5.058 5.058 0 0 0-2.479.585c-.095.056-.19.114-.272.172-.085.056-.172.12-.265.17-.426.33-.812.732-1.071 1.158-.273.424-.379.866-.331 1.18a.754.754 0 0 1 .026.12l.024.158-.005.204c-.01.418.043.807.148 1.164.056.177.12.352.204.508.08.154.177.312.3.474a5.172 5.172 0 0 0 2.134 1.624c.254.096.498.16.712.19.109 0 .201.054.212.107.005.029-.008.058-.04.084a.289.289 0 0 1-.148.03c-.379.013-.87-.143-1.334-.374a4.936 4.936 0 0 1-1.299-.96 4.664 4.664 0 0 1-.513-.616 3.612 3.612 0 0 1-.355-.67 3.748 3.748 0 0 1-.23-1.577l.01-.196-.026-.11c-.095-.384.035-.919.37-1.435.165-.254.363-.495.583-.717-.008-.003-.016-.005-.024-.01-.024-.024-.024-.064-.005-.12a5.236 5.236 0 0 0-.701.818c-.28.537-.376 1.074-.278 1.474l.027.103-.011.19a5.41 5.41 0 0 0 .06 1.17c.054.352.146.664.268.966.12.31.299.61.497.905.606.664 1.403 1.193 2.196 1.45.032.008.064.026.072.042.008.013-.013.021-.045.01a4.438 4.438 0 0 1-1.696-.822c.053.097.071.177.029.211-.042.037-.135.019-.257-.042.114.108.236.209.363.304.077.061.124.127.106.146-.022.024-.093-.008-.17-.066a5.889 5.889 0 0 1-1.328-1.421 4.205 4.205 0 0 1-.81-2.13.553.553 0 0 1-.108.24c.016.125.037.247.06.366.284 1.098 1.014 2.016 1.895 2.736a6.07 6.07 0 0 0 1.44.878c.513.214 1.053.336 1.569.307.04 0 .074.008.076.018 0 .014-.029.024-.066.024-.638.042-1.299-.153-1.91-.455.021.021.018.034-.01.03a.186.186 0 0 1-.096-.051c-.024-.024-.013-.035.013-.03-1.12-.602-2.117-1.536-2.672-2.677.465 1.082 1.328 2 2.323 2.654.119.05.24.103.362.153.035.014.072.04.08.056.005.013-.024.013-.058 0-.035-.013-.07-.024-.104-.04.196.109.334.228.305.289-.037.053-.246.02-.458-.1a6.374 6.374 0 0 1-1.561-1.186 2.028 2.028 0 0 1-.151-.151l-.164-.143a6.531 6.531 0 0 0 2.405 1.903c.085.031.148.076.143.1-.005.024-.082.013-.167-.018-.883-.305-1.677-.842-2.352-1.503a6.487 6.487 0 0 1-.892-1.125 4.75 4.75 0 0 1-.574-1.354 5.713 5.713 0 0 1-.4-1.802l.011.196-.047-.183c.008.06.016.124.02.188l-.01-.204-.008.098a4.91 4.91 0 0 0 .776 3.03c.553.849 1.278 1.49 2.1 2.071.043.027.072.058.072.072 0 .013-.037.003-.08-.027-.814-.558-1.526-1.156-2.103-2.027-.482-.733-.744-1.555-.86-2.368.056.836.312 1.657.749 2.358.426.698.97 1.264 1.58 1.762a.574.574 0 0 1 .126.13c.008 0 .022 0 .04.01.177.093.352.214.548.315a.24.24 0 0 1 .09.074c.013.021-.016.016-.058-.005zm6.276-2.871s-.021.013-.029.021c.024-.026.05-.056.08-.085l.163-.09s-.108.08-.214.156zm-1.034 1.77c-.061.013-.106.018-.106.018.042-.008.08-.01.106-.018zm-2.588-8.004c.304-.058.611-.074.908-.066.296.016.579.064.838.148-.135-.016-.262-.042-.402-.045a5.053 5.053 0 0 0-1.347-.034zm2.564 7.051c.148-.09.28-.153.41-.209.06-.097.13-.195.204-.29.19-.265.375-.527.531-.802-.047.02-.01-.045.005-.08.016-.037.032-.071.045-.108a6.338 6.338 0 0 1-.571.83c-.188.239-.41.482-.624.662zm-1.683 1.284-.026-.005s0 .003.034-.064l-.008.069zm-.058.1c.013 0 .026 0 .042-.003-.008.021-.024.019-.042.003zm.394-.069c-.026 0-.045-.005-.063-.003.063.008.063.003.063.003zm.94 1.175a7.95 7.95 0 0 0 .068-.325 5.5 5.5 0 0 1-.09.325h.024z"
    class="cls-10" style="fill:#f3cf32;stroke-width:0" transform="translate(-2.707 -5.801)" />
</svg>
